 <svg
      id="Heart_Balloon_24"
      width="24"
      height="24"
      viewBox="0 0 24 24"
      xmlns="http://www.w3.org/2000/svg"
      xmlnsXlink="http://www.w3.org/1999/xlink"
    >
      <rect width="24" height="24" stroke="none" fill="#000000" opacity="0" />

      <g transform="matrix(0.67 0 0 0.67 12 12)">
        <g>
          <g transform="matrix(1 0 0 1 0 9)">
            <path
              style="stroke: none; stroke-width: 1; stroke-dasharray: none; stroke-linecap: butt; stroke-dashoffset: 0; stroke-linejoin: miter; stroke-miterlimit: 4; fill: rgb(120,139,156); fill-rule: nonzero; opacity: 1;"
              transform=" translate(-15, -24)"
              d="M 14.5 29 C 14.4 29 14.4 29 14.3 28.9 C 14.100000000000001 28.799999999999997 13.9 28.5 14.100000000000001 28.2 C 14.100000000000001 28.2 15.000000000000002 26.2 15.000000000000002 24.9 C 15.000000000000002 23.799999999999997 14.700000000000001 22.7 14.400000000000002 21.799999999999997 C 14.2 21 14 20.2 14 19.5 C 14 19.2 14.2 19 14.5 19 C 14.8 19 15 19.2 15 19.5 C 15 20.1 15.2 20.8 15.4 21.6 C 15.700000000000001 22.6 16 23.700000000000003 16 25 C 16 26.5 15 28.6 14.9 28.7 C 14.9 28.9 14.7 29 14.5 29 z"
              stroke-linecap="round"
            />
          </g>
          <g transform="matrix(1 0 0 1 0 -5)">
            <path
              style="stroke: none; stroke-width: 1; stroke-dasharray: none; stroke-linecap: butt; stroke-dashoffset: 0; stroke-linejoin: miter; stroke-miterlimit: 4; fill: rgb(247,143,143); fill-rule: nonzero; opacity: 1;"
              transform=" translate(-15, -10)"
              d="M 15 18.5 C 12.2 18.5 5.5 10.7 5.5 7.300000000000001 C 5.5 4.000000000000001 8 1.5000000000000009 11.1 1.5000000000000009 C 12.4 1.5000000000000009 13.6 1.9000000000000008 14.7 2.700000000000001 L 15 3 L 15.3 2.8 C 16.3 1.9999999999999998 17.6 1.5999999999999999 18.900000000000002 1.5999999999999999 C 22.1 1.5999999999999999 24.5 4.2 24.5 7.3999999999999995 C 24.5 10.7 17.8 18.5 15 18.5 z"
              stroke-linecap="round"
            />
          </g>
          <g transform="matrix(1 0 0 1 0 -5)">
            <path
              style="stroke: none; stroke-width: 1; stroke-dasharray: none; stroke-linecap: butt; stroke-dashoffset: 0; stroke-linejoin: miter; stroke-miterlimit: 4; fill: rgb(199,67,67); fill-rule: nonzero; opacity: 1;"
              transform=" translate(-15, -10)"
              d="M 18.9 2 C 21.8 2 24 4.3 24 7.3 C 24 10.4 17.6 18 15 18 C 12.399999999999999 18 6 10.4 6 7.3 C 6 4.3 8.3 2 11.1 2 C 12.299999999999999 2 13.399999999999999 2.4 14.399999999999999 3.1 L 15 3.6 L 15.6 3.1 C 16.6 2.4 17.7 2 18.9 2 M 18.9 1 C 17.4 1 16.099999999999998 1.5 14.999999999999998 2.4 C 13.9 1.5 12.6 1 11.1 1 C 7.6 1 5 3.8 5 7.3 C 5 10.8 11.7 19 15 19 C 18.3 19 25 10.9 25 7.300000000000001 C 25 3.700000000000001 22.4 1 18.9 1 L 18.9 1 z"
              stroke-linecap="round"
            />
          </g>
          <g transform="matrix(1 0 0 1 0 4.5)">
            <path
              style="stroke: none; stroke-width: 1; stroke-dasharray: none; stroke-linecap: butt; stroke-dashoffset: 0; stroke-linejoin: miter; stroke-miterlimit: 4; fill: rgb(247,143,143); fill-rule: nonzero; opacity: 1;"
              transform=" translate(-15, -19.5)"
              d="M 13.6 20.5 L 14.2 18.5 L 15.8 18.5 L 16.4 20.5 z"
              stroke-linecap="round"
            />
          </g>
          <g transform="matrix(1 0 0 1 0 4.5)">
            <path
              style="stroke: none; stroke-width: 1; stroke-dasharray: none; stroke-linecap: butt; stroke-dashoffset: 0; stroke-linejoin: miter; stroke-miterlimit: 4; fill: rgb(199,67,67); fill-rule: nonzero; opacity: 1;"
              transform=" translate(-15, -19.5)"
              d="M 15.4 19 L 15.700000000000001 20 L 14.3 20 L 14.600000000000001 19 L 15.4 19 M 16.2 18 L 13.799999999999999 18 L 13 21 L 17 21 L 16.2 18 L 16.2 18 z"
              stroke-linecap="round"
            />
          </g>
        </g>
      </g>
    </svg>