<svg id='Heart_Balloon_24' width='24' height='24' viewBox='0 0 24 24' xmlns='http://www.w3.org/2000/svg' xmlns:xlink='http://www.w3.org/1999/xlink'><rect width='24' height='24' stroke='none' fill='#000000' opacity='0'/>


<g transform="matrix(0.42 0 0 0.42 12 12)" >
<g style="" >
<g transform="matrix(1 0 0 1 0 15.55)" >
<path style="stroke: none; stroke-width: 1; stroke-dasharray: none; stroke-linecap: butt; stroke-dashoffset: 0; stroke-linejoin: miter; stroke-miterlimit: 4; fill: rgb(176,190,197); fill-rule: nonzero; opacity: 1;" transform=" translate(-24, -39.55)" d="M 24.3 46.1 L 23 44.6 C 23 44.6 24 43.7 24 42 C 24 41.5 23.6 41 23.2 40.5 C 22.7 39.8 22 38.8 22 37.6 C 22 36.800000000000004 22.2 36.1 22.5 35.4 C 22.8 34.699999999999996 23 34 23 33 L 25 33 C 25 34.4 24.6 35.4 24.4 36.1 C 24.2 36.6 24 37.1 24 37.6 C 24 38.2 24.4 38.7 24.8 39.300000000000004 C 25.4 40 26 40.9 26 42 C 26 44.6 24.4 46 24.3 46.1 z" stroke-linecap="round" />
</g>
<g transform="matrix(1 0 0 1 0 8.5)" >
<path style="stroke: none; stroke-width: 1; stroke-dasharray: none; stroke-linecap: butt; stroke-dashoffset: 0; stroke-linejoin: miter; stroke-miterlimit: 4; fill: rgb(197,17,98); fill-rule: nonzero; opacity: 1;" transform=" translate(-24, -32.5)" d="M 26 34 L 25 34 L 24 35 L 23 34 L 22 34 L 23 30 L 25 30 L 26 34 z" stroke-linecap="round" />
</g>
<g transform="matrix(1 0 0 1 0 -7.5)" >
<path style="stroke: none; stroke-width: 1; stroke-dasharray: none; stroke-linecap: butt; stroke-dashoffset: 0; stroke-linejoin: miter; stroke-miterlimit: 4; fill: rgb(255,64,129); fill-rule: nonzero; opacity: 1;" transform=" translate(-24, -16.5)" d="M 30.1 2 C 27.8 2 25.700000000000003 2.8 24 4.1 C 22.3 2.8 20.2 2 17.9 2 C 12.4 2 8 6.5 8 12 C 8 20 19 29 24 31 C 28.9 29 40 20.1 40 12 C 40 6.5 35.6 2 30.1 2 z" stroke-linecap="round" />
</g>
<g transform="matrix(1 0 0 1 -0.65 -11.25)" >
<path style="stroke: none; stroke-width: 1; stroke-dasharray: none; stroke-linecap: butt; stroke-dashoffset: 0; stroke-linejoin: miter; stroke-miterlimit: 4; fill: rgb(252,228,236); fill-rule: nonzero; opacity: 1;" transform=" translate(-23.35, -12.75)" d="M 17.9 6 C 19.2 6 20.5 6.4 21.5 7.3 L 24 9.3 L 26.5 7.300000000000001 C 27.5 6.4 29.7 6 31 6 C 34.6 6 34.5 6.3 36.7 7.6 C 35.3 5.4 32.8 4 30.1 4 C 28.3 4 26.700000000000003 4.6 25.200000000000003 5.7 L 24.000000000000004 6.7 L 22.800000000000004 5.7 C 21.4 4.6 19.7 4 17.9 4 C 13.5 4 10 7.6 10 12 C 10 15.1 12.1 18.5 14.8 21.5 C 13.1 19.1 12 16 12 12 C 12 8.7 14.6 6 17.9 6 z" stroke-linecap="round" />
</g>
</g>
</g>
</svg>